<svg width="281" height="43" viewBox="0 0 281 43" fill="none" xmlns="http://www.w3.org/2000/svg">
<g clip-path="url(#clip0_86_5)">
<g clip-path="url(#clip1_86_5)">
<path d="M68 21.5C68 32.5456 58.9793 41.5 47.8518 41.5H47.5912H47.4306L47.2751 41.4962C47.1605 41.4962 47.0453 41.4887 46.9313 41.4837C46.8866 41.4837 46.8425 41.48 46.7978 41.4769L46.5579 41.4637L46.3835 41.4519L46.3237 41.4475C46.2715 41.4437 46.2192 41.44 46.1669 41.435C46.1147 41.43 46.0738 41.4275 46.0272 41.4231C45.9699 41.4181 45.9126 41.4131 45.8546 41.4069L45.7583 41.3975C45.6223 41.3837 45.4869 41.3687 45.3516 41.3512C45.3006 41.3456 45.2489 41.3387 45.1973 41.3319C45.0714 41.3165 44.9478 41.2992 44.8265 41.28L44.6407 41.25C44.5778 41.2406 44.5148 41.2306 44.4569 41.22L44.2736 41.1881C44.1931 41.1744 44.1125 41.1594 44.0331 41.1437C43.9702 41.1331 43.9135 41.1212 43.8537 41.1094L43.7278 41.0831C43.6056 41.0581 43.4847 41.0319 43.3638 41.0044L43.1856 40.9631L43.0062 40.92C42.8866 40.8912 42.7676 40.8608 42.6492 40.8287L42.4723 40.7812L42.2953 40.7319C42.1776 40.6981 42.0599 40.6637 41.9434 40.6281L41.7923 40.5819L41.7192 40.5587L41.5757 40.5125C41.4535 40.4725 41.3314 40.4319 41.2105 40.3875L41.0367 40.325L41.0191 40.3187L40.8491 40.2562C40.6684 40.1937 40.4902 40.1219 40.3126 40.05L40.1357 39.9781L39.9594 39.9044C39.8419 39.8556 39.7252 39.805 39.6094 39.7525L39.4589 39.6875L39.4104 39.6656L39.292 39.6106C38.7883 39.3765 38.2957 39.1215 37.8143 38.8456L37.6638 38.7587C37.5826 38.7119 37.5014 38.6637 37.4214 38.615L37.2955 38.5369L37.2476 38.5081L37.1286 38.4337C36.9565 38.3271 36.7869 38.2175 36.6199 38.105L36.4669 38C36.3922 37.9496 36.3179 37.8983 36.244 37.8462C36.2397 37.8437 36.2357 37.8408 36.232 37.8375C36.1556 37.7842 36.0801 37.7304 36.0053 37.6762L35.9921 37.6669C35.9111 37.6081 35.8305 37.5487 35.7503 37.4887C35.7407 37.4824 35.7315 37.4755 35.7226 37.4681C35.6528 37.4162 35.5835 37.3637 35.5149 37.31C35.4985 37.2987 35.4834 37.2869 35.4683 37.2744C35.4009 37.2225 35.3335 37.17 35.2668 37.1162C35.2416 37.0969 35.2164 37.0762 35.1912 37.0537C35.1232 37 35.0552 36.9444 34.9879 36.8881C34.9728 36.8769 34.9583 36.865 34.9444 36.8525C34.8966 36.8133 34.8487 36.7733 34.8009 36.7325C34.7581 36.6969 34.7152 36.66 34.6749 36.6237C34.6032 36.5633 34.5324 36.5008 34.4628 36.4362C34.3878 36.3706 34.3142 36.3037 34.2405 36.2369C34.1668 36.17 34.0976 36.1062 34.0271 36.0394C33.6778 35.7131 33.3405 35.374 33.0152 35.0219C32.9781 34.9825 32.9416 34.9425 32.9057 34.9025C32.8553 34.8481 32.8056 34.7931 32.7571 34.7375C32.7086 34.6819 32.6645 34.6337 32.6192 34.5812C32.5739 34.5287 32.5141 34.46 32.4618 34.3987C32.3082 34.2192 32.1583 34.0369 32.0122 33.8519L31.8914 33.6975C31.7768 33.5512 31.6647 33.4029 31.5551 33.2525C31.4922 33.1662 31.4292 33.08 31.3662 32.9925C31.3617 32.9867 31.3575 32.9807 31.3536 32.9744C31.2928 32.8881 31.2323 32.8012 31.1723 32.7137C31.1173 32.6346 31.0636 32.5548 31.0111 32.4744C30.9897 32.4431 30.9683 32.4119 30.9482 32.3781C30.91 32.3206 30.8722 32.2625 30.8348 32.2037C30.8204 32.1819 30.8059 32.16 30.7926 32.1375C30.7385 32.0542 30.6852 31.9687 30.6327 31.8812C30.5748 31.7875 30.5181 31.6937 30.4621 31.5975C30.4061 31.5012 30.3506 31.41 30.2959 31.3112C30.2644 31.2556 30.2329 31.2006 30.2021 31.1444L30.1347 31.0194C30.0963 30.9506 30.0591 30.8812 30.022 30.8119C30.0132 30.7956 30.0044 30.7787 29.9962 30.7619C29.9647 30.6994 29.9332 30.6425 29.9024 30.5825C29.8646 30.5087 29.8274 30.435 29.7903 30.3612C29.7531 30.2875 29.7172 30.2131 29.6814 30.1394C29.6092 29.9906 29.5388 29.8408 29.4704 29.69C29.402 29.5392 29.3355 29.3873 29.2708 29.2344C29.2387 29.1581 29.2079 29.0812 29.1751 29.0044C29.1424 28.9275 29.1122 28.8513 29.0826 28.7744C29.0524 28.6975 29.0196 28.6206 28.9932 28.5431C28.9667 28.4656 28.9346 28.3875 28.9056 28.3094C28.8217 28.0752 28.7405 27.8385 28.662 27.5994C28.6362 27.52 28.611 27.44 28.5864 27.36C28.5505 27.2444 28.5159 27.1275 28.4819 27.0106C28.4655 26.9525 28.4485 26.8937 28.4322 26.835C28.4158 26.7762 28.4001 26.7181 28.3843 26.6594C28.352 26.5419 28.3214 26.4238 28.2924 26.305C28.2773 26.2458 28.2628 26.1865 28.2489 26.1269L28.2074 25.95C28.1797 25.83 28.1532 25.71 28.1281 25.5888L28.1016 25.4638C28.0896 25.4044 28.0777 25.345 28.067 25.2856C28.0512 25.2069 28.0361 25.1269 28.0223 25.0469C28.0109 24.9865 28.0002 24.9258 27.9902 24.865C27.9795 24.8025 27.9694 24.74 27.9599 24.6825C27.9505 24.625 27.9404 24.5575 27.931 24.4988C27.9121 24.3738 27.8951 24.2538 27.8787 24.1306C27.8718 24.0794 27.8649 24.0281 27.8592 23.9775C27.8416 23.8431 27.8265 23.7088 27.8126 23.5738C27.8088 23.5421 27.8057 23.5102 27.8032 23.4781C27.7969 23.4206 27.7918 23.3638 27.7868 23.3069C27.7824 23.2606 27.778 23.2144 27.7748 23.1681C27.7717 23.1219 27.766 23.0644 27.7622 23.0125C27.7622 22.9925 27.7591 22.9731 27.7578 22.9531C27.7534 22.8956 27.7496 22.8375 27.7459 22.78C27.7408 22.7004 27.7364 22.621 27.7326 22.5419C27.7295 22.4975 27.7276 22.4538 27.7257 22.4094C27.7207 22.2963 27.7163 22.1819 27.7131 22.0681L27.7094 21.9138C27.7094 21.8606 27.7094 21.8075 27.7094 21.7544C27.7094 21.6681 27.7094 21.5819 27.7094 21.4956C27.7094 21.4094 27.7094 21.3231 27.7094 21.2369C27.7094 21.1619 27.7106 21.0869 27.7131 21.0119C27.7175 20.8194 27.7251 20.6281 27.7358 20.4369C27.7389 20.3669 27.7427 20.2963 27.7478 20.2263C27.7547 20.1156 27.7622 20.0044 27.7711 19.8944C27.7761 19.8319 27.7818 19.7694 27.7874 19.7031C27.7937 19.6288 27.8013 19.5544 27.8088 19.4794L27.8145 19.4206C27.8221 19.3469 27.8302 19.2731 27.8391 19.1994C27.8479 19.1219 27.8573 19.045 27.8668 18.9688C27.8743 18.91 27.8819 18.8519 27.8901 18.7938C27.8982 18.7356 27.9045 18.6894 27.9121 18.6375C27.9343 18.4817 27.9585 18.3267 27.9845 18.1725C27.9965 18.1019 28.0084 18.0319 28.021 17.9619C28.0207 17.9579 28.0207 17.954 28.021 17.95C28.0475 17.8006 28.0758 17.6525 28.1066 17.5044C28.1136 17.4694 28.1205 17.435 28.1281 17.4006C28.1482 17.3025 28.1696 17.2044 28.191 17.1069C28.2393 16.8915 28.2915 16.6775 28.3478 16.465C28.3705 16.3769 28.3938 16.2888 28.4183 16.2006C28.4454 16.1019 28.4737 16.0025 28.5027 15.9044C28.5285 15.8156 28.5549 15.7269 28.5826 15.6388C28.5871 15.6219 28.5921 15.6056 28.5978 15.5894C28.6261 15.4981 28.6551 15.4075 28.6846 15.3169C28.7161 15.22 28.7476 15.1244 28.7816 15.0281C28.8156 14.9319 28.8477 14.8406 28.8824 14.7425L28.8861 14.7319C28.9075 14.6694 28.9296 14.6119 28.9529 14.5525C28.9762 14.4931 28.9906 14.45 29.0102 14.3988C29.0731 14.2381 29.1361 14.0781 29.1991 13.92C29.2205 13.8675 29.2419 13.815 29.262 13.7631C29.2715 13.7388 29.2822 13.715 29.2929 13.6913C29.3187 13.6288 29.3458 13.5663 29.3735 13.5038C29.3785 13.4913 29.3835 13.4794 29.3892 13.4675C29.4188 13.4 29.4522 13.3331 29.4792 13.2663C29.5466 13.1188 29.6152 12.9719 29.6864 12.8288C29.7103 12.7794 29.7342 12.73 29.7588 12.6813C29.7834 12.6325 29.7997 12.5981 29.8218 12.5563C29.8438 12.5144 29.8564 12.4863 29.8746 12.4519C29.8929 12.4175 29.9124 12.3775 29.9326 12.34C29.9603 12.2863 29.9886 12.2325 30.0169 12.1794C30.0541 12.1088 30.0919 12.0388 30.1296 11.9694C30.2316 11.7831 30.3366 11.599 30.4445 11.4169C30.4728 11.3688 30.5011 11.3213 30.5301 11.2738C30.5641 11.2163 30.5987 11.1594 30.634 11.1025C30.7127 10.9731 30.7939 10.8444 30.8764 10.7175C30.9192 10.6506 30.9633 10.5838 31.0074 10.5175C31.042 10.4644 31.0772 10.4119 31.1125 10.36C31.3085 10.0683 31.5121 9.78396 31.7232 9.50688C31.756 9.46313 31.7894 9.42 31.8227 9.37688C31.8435 9.34875 31.8643 9.32125 31.8857 9.29438L32.0066 9.14C32.1526 8.955 32.3025 8.77271 32.4561 8.59313C32.5084 8.53063 32.5606 8.46813 32.6135 8.41063C32.6664 8.35313 32.7048 8.30626 32.7514 8.25438C32.798 8.20251 32.8496 8.14376 32.9 8.08938C32.9359 8.04938 32.9724 8.00938 33.0096 7.97001C33.3261 7.62667 33.6549 7.29521 33.9962 6.97563C35.5413 8.42832 36.8461 10.1136 37.8628 11.9694C35.3799 14.5295 33.995 17.9463 34 21.5C34 21.6619 34 21.8231 34.0088 21.9831C34.0822 24.1648 34.6807 26.2973 35.7541 28.2025C35.8603 28.3912 35.9709 28.5771 36.0859 28.76L55.1637 9.82251C53.11 8.55178 50.7553 7.84042 48.3366 7.76001C48.1755 7.75376 48.013 7.75126 47.8499 7.75126C46.2508 7.74937 44.6634 8.02302 43.1586 8.56C42.0868 6.68609 40.7871 4.94997 39.2889 3.39063C39.6813 3.20688 40.0801 3.03605 40.4852 2.87813L40.6526 2.81563C40.7924 2.76188 40.9335 2.71063 41.0751 2.66063C41.1337 2.63938 41.1929 2.61938 41.2521 2.59813C41.3112 2.57688 41.3698 2.55751 41.4296 2.53563C41.4894 2.51376 41.5555 2.49313 41.6216 2.47313C41.6997 2.44751 41.7784 2.42313 41.8578 2.39876L42.0567 2.33626C42.2091 2.29126 42.3623 2.24772 42.5163 2.20563C42.5598 2.19376 42.6026 2.18188 42.6461 2.17126C42.7015 2.15626 42.7575 2.14126 42.8135 2.12751C42.8696 2.11376 42.9395 2.09501 43.0024 2.07938C43.0818 2.06001 43.1611 2.04063 43.2411 2.02251L43.3594 2.00001L43.5017 1.96876C43.6793 1.93001 43.8581 1.89313 44.0382 1.85938C44.1194 1.84376 44.2006 1.82876 44.2825 1.81438H44.2913C44.3719 1.79938 44.4531 1.78563 44.5343 1.77251C44.6716 1.75001 44.8097 1.72917 44.9486 1.71001L45.0915 1.68751C45.3081 1.65813 45.5254 1.63188 45.7445 1.60938L45.8452 1.59938C45.9044 1.59313 45.9629 1.58813 46.0215 1.58313C46.1084 1.57501 46.1953 1.56751 46.2822 1.56126L46.3791 1.55438C46.4358 1.55001 46.4931 1.54563 46.5504 1.54251H46.5699L46.7771 1.53063C46.8721 1.52563 46.9659 1.52126 47.0635 1.51751L47.26 1.51126C47.3097 1.51126 47.3601 1.50813 47.4098 1.50751H47.5509C47.651 1.50751 47.7511 1.50751 47.8518 1.50751H48.1125H48.2731L48.4286 1.51126C48.5432 1.51126 48.6578 1.51876 48.7723 1.52376C48.8171 1.52376 48.8611 1.52751 48.9058 1.53063C48.9856 1.53438 49.0655 1.53876 49.1457 1.54376L49.3201 1.55563L49.3799 1.56001C49.4322 1.56376 49.4845 1.56751 49.5367 1.57251C49.589 1.57751 49.6299 1.58001 49.6765 1.58438C49.7338 1.58938 49.7911 1.59438 49.849 1.60063C49.8809 1.60313 49.913 1.60626 49.9453 1.61001C50.0813 1.62376 50.2167 1.63876 50.3521 1.65626C50.4031 1.66188 50.4547 1.66876 50.5063 1.67563C50.6323 1.69188 50.7538 1.70876 50.8772 1.72751L51.0623 1.75626C51.1253 1.76563 51.1882 1.77563 51.2462 1.78626L51.4294 1.81813C51.51 1.83188 51.5906 1.84688 51.6699 1.86251C51.7329 1.87313 51.7895 1.88501 51.8493 1.89688L51.9753 1.92313C52.0974 1.94813 52.2183 1.97438 52.3392 2.00188L52.5174 2.04313C52.5774 2.05688 52.6372 2.07126 52.6968 2.08626C52.8165 2.11501 52.9355 2.14542 53.0538 2.17751L53.2308 2.22501L53.4077 2.27438C53.5254 2.30813 53.6432 2.34251 53.7596 2.37813L53.9611 2.44063L54.162 2.50313L54.3616 2.56938C54.4944 2.61438 54.6266 2.66126 54.7582 2.70876L54.9547 2.78126C55.0088 2.80126 55.063 2.82209 55.1171 2.84376C55.2015 2.87501 55.2846 2.90626 55.369 2.94126L55.5409 3.01126L55.7335 3.09126C55.7965 3.11813 55.8595 3.14563 55.9224 3.17376C55.9854 3.20188 56.0483 3.22876 56.1113 3.25751L56.3002 3.34376C56.3632 3.37251 56.4261 3.40188 56.4891 3.43188C56.5709 3.47001 56.6522 3.50876 56.7328 3.54876L56.8631 3.61126C56.9261 3.64188 56.989 3.67376 57.052 3.70501C57.1779 3.76751 57.2975 3.83001 57.4197 3.89751L57.5796 3.98438C57.6898 4.04688 57.7987 4.10501 57.9064 4.16751L58.0323 4.23938C58.1885 4.33001 58.3433 4.42251 58.4963 4.51813L58.6097 4.58876C58.6449 4.61063 58.6802 4.63251 58.7148 4.65501C58.7778 4.69688 58.8458 4.73876 58.9106 4.78001C58.9566 4.80938 59.0019 4.83876 59.0466 4.86938C59.0913 4.90001 59.1323 4.92626 59.1726 4.95563C59.5239 5.1923 59.8668 5.44021 60.2014 5.69938C60.2423 5.73001 60.2832 5.76188 60.3235 5.79376C60.5036 5.93459 60.681 6.07855 60.8556 6.22563L61.0319 6.37501C61.0948 6.42876 61.1578 6.48251 61.2208 6.53751C61.2598 6.57126 61.2982 6.60563 61.3366 6.64063C61.4203 6.71438 61.5028 6.79001 61.5847 6.86626C61.6344 6.91188 61.6842 6.95813 61.7333 7.00501C61.9813 7.23834 62.2229 7.47813 62.458 7.72438C62.5052 7.77313 62.5518 7.82251 62.5978 7.87188C62.6746 7.95313 62.7508 8.03501 62.825 8.11813C62.8603 8.15626 62.8949 8.19438 62.9289 8.23313C62.9843 8.29563 63.0385 8.35813 63.0926 8.42063C63.1468 8.48313 63.1909 8.53375 63.2394 8.59063C63.3871 8.76355 63.5321 8.93959 63.6744 9.11875C63.7065 9.15875 63.7374 9.19938 63.7695 9.24C63.9005 9.40667 64.0281 9.5748 64.1523 9.74438L45.7816 27.9744L40.5381 33.1794C42.5917 34.4502 44.9464 35.1616 47.3651 35.2419C47.5263 35.2481 47.6888 35.2506 47.8518 35.2506C55.5018 35.2506 61.7037 29.0944 61.7037 21.5006C61.7037 21.3388 61.7037 21.1775 61.6949 21.0175L64.5282 18.205L67.1185 15.6331C67.1544 15.7488 67.189 15.8656 67.223 15.9825C67.2394 16.0406 67.2564 16.0994 67.2728 16.1581C67.2891 16.2169 67.3049 16.275 67.3206 16.3338C67.3525 16.4513 67.3832 16.5694 67.4125 16.6881C67.4276 16.7477 67.4421 16.8071 67.456 16.8663L67.4975 17.0431C67.5252 17.1631 67.5517 17.2831 67.5769 17.4044L67.6033 17.5294C67.6153 17.5888 67.6272 17.6481 67.6379 17.7075C67.6537 17.7863 67.6688 17.8663 67.6826 17.9463C67.694 18.0067 67.7047 18.0673 67.7148 18.1281C67.7255 18.1906 67.7355 18.2531 67.745 18.3106C67.7544 18.3681 67.7645 18.4356 67.7739 18.4944C67.7928 18.6169 67.8102 18.7396 67.8262 18.8625C67.8331 18.9138 67.8401 18.965 67.8457 19.0156C67.8634 19.15 67.8785 19.2844 67.8923 19.4194C67.8961 19.451 67.8992 19.4829 67.9018 19.515C67.908 19.5725 67.9131 19.6294 67.9181 19.6863C67.9225 19.7325 67.9269 19.7788 67.9301 19.825C67.9332 19.8713 67.9389 19.9288 67.9427 19.9806C67.9427 20.0006 67.9458 20.02 67.9471 20.04C67.9515 20.0975 67.9553 20.1556 67.9591 20.2131C67.9641 20.2927 67.9685 20.3721 67.9723 20.4513C67.9723 20.4956 67.9773 20.5394 67.9792 20.5838C67.9842 20.6975 67.9886 20.8113 67.9918 20.925L67.9956 21.0794C67.9956 21.1325 67.9956 21.1856 67.9956 21.2388C67.9985 21.3267 68 21.4138 68 21.5Z" fill="#71A894"/>
<path d="M34 6.97682C33.6592 7.29682 33.3303 7.62828 33.0134 7.97119C32.9762 8.01057 32.9397 8.05057 32.9038 8.09057C32.8534 8.14494 32.8037 8.19994 32.7552 8.25557C32.7067 8.31119 32.6627 8.35932 32.6173 8.41182C32.572 8.46432 32.5122 8.53307 32.4599 8.59432C32.3063 8.77349 32.1564 8.95578 32.0104 9.14119L31.8895 9.29557C31.8674 9.32244 31.8467 9.34994 31.8265 9.37807C31.7931 9.42119 31.7598 9.46432 31.727 9.50807C31.5172 9.78682 31.3136 10.0712 31.1163 10.3612C31.081 10.4131 31.0458 10.4656 31.0111 10.5187C30.9671 10.5849 30.923 10.6518 30.8802 10.7187C30.7977 10.8437 30.7165 10.9743 30.6378 11.1037C30.6025 11.1606 30.5679 11.2174 30.5339 11.2749C30.5049 11.3224 30.4766 11.3699 30.4483 11.4181C30.3408 11.6002 30.2359 11.7843 30.1334 11.9706C28.8426 10.634 27.2923 9.57095 25.5761 8.84555C23.8599 8.12015 22.0134 7.74745 20.1481 7.74994C12.4981 7.74994 6.2963 13.9062 6.2963 21.4999C6.2963 29.0937 12.4981 35.25 20.1481 35.25C21.7473 35.2518 23.3346 34.9782 24.8395 34.4412C25.9118 36.3149 27.2121 38.0506 28.7111 39.6093C26.0322 40.8586 23.108 41.5042 20.1481 41.5C9.0207 41.5 0 32.5456 0 21.4999C0 10.4543 9.0207 1.49994 20.1481 1.49994C25.3017 1.49684 30.2599 3.45727 34 6.97682V6.97682Z" fill="#303031"/>
</g>
<path d="M88.8281 11.1875C92.1823 11.1875 94.974 12.3802 97.2031 14.7656C99.1927 16.8906 100.188 19.4167 100.188 22.3438C100.188 24.3542 99.6823 26.2188 98.6719 27.9375C97.6406 29.7188 96.2188 31.1042 94.4062 32.0938C92.6979 33.0208 90.7865 33.4844 88.6719 33.4844C86.7552 33.4844 84.9583 33.0417 83.2812 32.1562C81.3125 31.125 79.8021 29.6615 78.75 27.7656C77.8333 26.1198 77.375 24.2604 77.375 22.1875C77.375 19.0104 78.6042 16.3125 81.0625 14.0938C82.2917 12.9792 83.6979 12.1875 85.2812 11.7188C86.4792 11.3646 87.6615 11.1875 88.8281 11.1875ZM88.7969 14.9844C86.8177 14.9844 85.1406 15.7031 83.7656 17.1406C82.3698 18.5885 81.6719 20.349 81.6719 22.4219C81.6719 23.3281 81.8594 24.2396 82.2344 25.1562C82.6094 26.0625 83.1198 26.8542 83.7656 27.5312C85.1406 28.9688 86.8125 29.6875 88.7812 29.6875C90.7604 29.6875 92.4427 28.9688 93.8281 27.5312C95.2135 26.0833 95.9062 24.349 95.9062 22.3281C95.9062 21.349 95.724 20.4062 95.3594 19.5C94.9948 18.5833 94.4844 17.7969 93.8281 17.1406C92.401 15.7031 90.724 14.9844 88.7969 14.9844ZM106.017 20.9219C107.215 19.4323 108.73 18.6875 110.564 18.6875C112.585 18.6875 114.272 19.4583 115.626 21C116.803 22.3333 117.392 24.0312 117.392 26.0938C117.392 28.4167 116.631 30.276 115.111 31.6719C113.809 32.8594 112.319 33.4531 110.642 33.4531C109.704 33.4531 108.871 33.276 108.142 32.9219C107.413 32.5677 106.704 31.9896 106.017 31.1875V39.2969C106.017 39.7865 105.954 40.0938 105.829 40.2188C105.704 40.3438 105.397 40.4062 104.907 40.4062H103.236C102.756 40.4062 102.454 40.3438 102.329 40.2188C102.204 40.0938 102.142 39.7865 102.142 39.2969V20.25C102.142 19.7604 102.204 19.4531 102.329 19.3281C102.454 19.2031 102.756 19.1406 103.236 19.1406H104.907C105.397 19.1406 105.704 19.2031 105.829 19.3281C105.954 19.4531 106.017 19.7604 106.017 20.25V20.9219ZM109.501 22.1875C108.428 22.1875 107.512 22.5677 106.751 23.3281C105.991 24.0885 105.611 25 105.611 26.0625C105.611 27.1354 105.991 28.0521 106.751 28.8125C107.512 29.5729 108.428 29.9531 109.501 29.9531C110.574 29.9531 111.486 29.5729 112.236 28.8125C112.996 28.0417 113.376 27.1094 113.376 26.0156C113.376 24.9635 112.996 24.0677 112.236 23.3281C111.475 22.5677 110.564 22.1875 109.501 22.1875ZM122.299 26.7031C122.341 27.8802 122.643 28.7865 123.206 29.4219C123.81 30.0885 124.643 30.4219 125.706 30.4219C127.018 30.4219 128.034 29.9115 128.752 28.8906C128.888 28.7031 129.06 28.6094 129.268 28.6094C129.299 28.6094 129.487 28.6354 129.831 28.6875L131.237 28.9219C131.622 28.9844 131.883 29.0625 132.018 29.1562C132.154 29.25 132.221 29.4062 132.221 29.625C132.221 29.8229 132.112 30.099 131.893 30.4531C131.674 30.8073 131.414 31.1302 131.112 31.4219C129.726 32.776 127.94 33.4531 125.752 33.4531C124.377 33.4531 123.112 33.1615 121.956 32.5781C120.57 31.8802 119.575 30.8281 118.971 29.4219C118.544 28.4323 118.331 27.3229 118.331 26.0938C118.331 24.6562 118.643 23.3333 119.268 22.125C119.872 20.9375 120.768 20.0573 121.956 19.4844C123.039 18.9531 124.247 18.6875 125.581 18.6875C127.622 18.6875 129.279 19.2656 130.549 20.4219C131.195 21.0156 131.711 21.7969 132.096 22.7656C132.482 23.7344 132.674 24.7292 132.674 25.75C132.674 26.1562 132.607 26.4167 132.471 26.5312C132.346 26.6458 132.044 26.7031 131.565 26.7031H122.299ZM128.987 24.2344C128.831 23.5365 128.586 22.9896 128.252 22.5938C127.617 21.8333 126.758 21.4531 125.674 21.4531C124.831 21.4531 124.122 21.6979 123.549 22.1875C122.987 22.6771 122.617 23.3594 122.44 24.2344H128.987ZM138.269 20.8594C138.801 20.1823 139.316 19.6979 139.816 19.4062C140.629 18.9271 141.566 18.6875 142.629 18.6875C144.337 18.6875 145.681 19.2448 146.66 20.3594C147.066 20.8281 147.347 21.349 147.504 21.9219C147.67 22.4948 147.754 23.2552 147.754 24.2031V31.8906C147.754 32.3802 147.691 32.6875 147.566 32.8125C147.441 32.9375 147.139 33 146.66 33H144.972C144.504 33 144.202 32.9375 144.066 32.8125C143.941 32.6771 143.879 32.3698 143.879 31.8906V25.3281C143.879 24.2656 143.754 23.5156 143.504 23.0781C143.087 22.349 142.327 21.9844 141.222 21.9844C140.222 21.9844 139.478 22.3021 138.988 22.9375C138.509 23.5625 138.269 24.526 138.269 25.8281V31.8906C138.269 32.3802 138.207 32.6875 138.082 32.8125C137.957 32.9375 137.65 33 137.16 33H135.488C135.009 33 134.707 32.9375 134.582 32.8125C134.457 32.6875 134.394 32.3802 134.394 31.8906V20.25C134.394 19.7604 134.457 19.4531 134.582 19.3281C134.707 19.2031 135.009 19.1406 135.488 19.1406H137.16C137.65 19.1406 137.957 19.2031 138.082 19.3281C138.207 19.4531 138.269 19.7604 138.269 20.25V20.8594ZM161.647 15.2812V20.0156H167.897C168.386 20.0156 168.694 20.0781 168.819 20.2031C168.944 20.3281 169.006 20.6354 169.006 21.125V22.5156C169.006 23.0052 168.944 23.3125 168.819 23.4375C168.694 23.5625 168.386 23.625 167.897 23.625H161.647V29.3906H168.209C168.689 29.3906 168.991 29.4531 169.116 29.5781C169.241 29.7031 169.303 30.0104 169.303 30.5V31.8906C169.303 32.3802 169.241 32.6875 169.116 32.8125C168.991 32.9375 168.689 33 168.209 33H158.6C158.11 33 157.803 32.9375 157.678 32.8125C157.553 32.6875 157.491 32.3802 157.491 31.8906V12.7812C157.491 12.2917 157.553 11.9844 157.678 11.8594C157.803 11.7344 158.11 11.6719 158.6 11.6719H168.209C168.678 11.6719 168.98 11.7396 169.116 11.875C169.241 12 169.303 12.3021 169.303 12.7812V14.1719C169.303 14.6615 169.241 14.9688 169.116 15.0938C168.991 15.2188 168.689 15.2812 168.209 15.2812H161.647ZM175.336 20.8594C175.867 20.1823 176.382 19.6979 176.882 19.4062C177.695 18.9271 178.632 18.6875 179.695 18.6875C181.403 18.6875 182.747 19.2448 183.726 20.3594C184.132 20.8281 184.414 21.349 184.57 21.9219C184.737 22.4948 184.82 23.2552 184.82 24.2031V31.8906C184.82 32.3802 184.757 32.6875 184.632 32.8125C184.507 32.9375 184.205 33 183.726 33H182.039C181.57 33 181.268 32.9375 181.132 32.8125C181.007 32.6771 180.945 32.3698 180.945 31.8906V25.3281C180.945 24.2656 180.82 23.5156 180.57 23.0781C180.153 22.349 179.393 21.9844 178.289 21.9844C177.289 21.9844 176.544 22.3021 176.054 22.9375C175.575 23.5625 175.336 24.526 175.336 25.8281V31.8906C175.336 32.3802 175.273 32.6875 175.148 32.8125C175.023 32.9375 174.716 33 174.226 33H172.554C172.075 33 171.773 32.9375 171.648 32.8125C171.523 32.6875 171.461 32.3802 171.461 31.8906V20.25C171.461 19.7604 171.523 19.4531 171.648 19.3281C171.773 19.2031 172.075 19.1406 172.554 19.1406H174.226C174.716 19.1406 175.023 19.2031 175.148 19.3281C175.273 19.4531 175.336 19.7604 175.336 20.25V20.8594ZM191.134 22.4844V31.8906C191.134 32.3802 191.071 32.6875 190.946 32.8125C190.821 32.9375 190.519 33 190.04 33H188.353C187.884 33 187.582 32.9375 187.446 32.8125C187.321 32.6771 187.259 32.3698 187.259 31.8906V22.4844H186.821C186.353 22.4844 186.05 22.4219 185.915 22.2969C185.79 22.1615 185.728 21.8594 185.728 21.3906V20.25C185.728 19.7604 185.79 19.4531 185.915 19.3281C186.04 19.2031 186.342 19.1406 186.821 19.1406H187.259V15.5312C187.259 15.0417 187.321 14.7344 187.446 14.6094C187.571 14.4844 187.873 14.4219 188.353 14.4219H190.04C190.509 14.4219 190.811 14.4844 190.946 14.6094C191.071 14.7448 191.134 15.0521 191.134 15.5312V19.1406H192.774C193.264 19.1406 193.571 19.2031 193.696 19.3281C193.821 19.4531 193.884 19.7604 193.884 20.25V21.3906C193.884 21.8698 193.821 22.1719 193.696 22.2969C193.571 22.4219 193.264 22.4844 192.774 22.4844H191.134ZM197.744 26.7031C197.786 27.8802 198.088 28.7865 198.651 29.4219C199.255 30.0885 200.088 30.4219 201.151 30.4219C202.463 30.4219 203.479 29.9115 204.198 28.8906C204.333 28.7031 204.505 28.6094 204.713 28.6094C204.744 28.6094 204.932 28.6354 205.276 28.6875L206.682 28.9219C207.067 28.9844 207.328 29.0625 207.463 29.1562C207.599 29.25 207.666 29.4062 207.666 29.625C207.666 29.8229 207.557 30.099 207.338 30.4531C207.119 30.8073 206.859 31.1302 206.557 31.4219C205.171 32.776 203.385 33.4531 201.198 33.4531C199.823 33.4531 198.557 33.1615 197.401 32.5781C196.015 31.8802 195.02 30.8281 194.416 29.4219C193.989 28.4323 193.776 27.3229 193.776 26.0938C193.776 24.6562 194.088 23.3333 194.713 22.125C195.317 20.9375 196.213 20.0573 197.401 19.4844C198.484 18.9531 199.692 18.6875 201.026 18.6875C203.067 18.6875 204.724 19.2656 205.994 20.4219C206.64 21.0156 207.156 21.7969 207.541 22.7656C207.927 23.7344 208.119 24.7292 208.119 25.75C208.119 26.1562 208.052 26.4167 207.916 26.5312C207.791 26.6458 207.489 26.7031 207.01 26.7031H197.744ZM204.432 24.2344C204.276 23.5365 204.031 22.9896 203.698 22.5938C203.062 21.8333 202.203 21.4531 201.119 21.4531C200.276 21.4531 199.567 21.6979 198.994 22.1875C198.432 22.6771 198.062 23.3594 197.885 24.2344H204.432ZM213.714 21.2344C214.673 19.5365 216.032 18.6875 217.792 18.6875C218.834 18.6875 219.355 18.9531 219.355 19.4844C219.355 19.5885 219.334 19.776 219.292 20.0469L219.074 21.4219C219.022 21.8073 218.949 22.0729 218.855 22.2188C218.761 22.3542 218.61 22.4219 218.402 22.4219C218.339 22.4219 218.246 22.4062 218.121 22.375C217.589 22.2396 217.167 22.1719 216.855 22.1719C215.949 22.1719 215.194 22.5104 214.589 23.1875C214.006 23.8229 213.714 24.875 213.714 26.3438V31.8906C213.714 32.3802 213.652 32.6875 213.527 32.8125C213.402 32.9375 213.095 33 212.605 33H210.933C210.454 33 210.152 32.9375 210.027 32.8125C209.902 32.6875 209.839 32.3802 209.839 31.8906V20.25C209.839 19.7604 209.902 19.4531 210.027 19.3281C210.152 19.2031 210.454 19.1406 210.933 19.1406H212.605C213.095 19.1406 213.402 19.2031 213.527 19.3281C213.652 19.4531 213.714 19.7604 213.714 20.25V21.2344ZM224.059 20.9219C225.257 19.4323 226.773 18.6875 228.606 18.6875C230.627 18.6875 232.315 19.4583 233.669 21C234.846 22.3333 235.434 24.0312 235.434 26.0938C235.434 28.4167 234.674 30.276 233.153 31.6719C231.851 32.8594 230.361 33.4531 228.684 33.4531C227.747 33.4531 226.914 33.276 226.184 32.9219C225.455 32.5677 224.747 31.9896 224.059 31.1875V39.2969C224.059 39.7865 223.997 40.0938 223.872 40.2188C223.747 40.3438 223.44 40.4062 222.95 40.4062H221.278C220.799 40.4062 220.497 40.3438 220.372 40.2188C220.247 40.0938 220.184 39.7865 220.184 39.2969V20.25C220.184 19.7604 220.247 19.4531 220.372 19.3281C220.497 19.2031 220.799 19.1406 221.278 19.1406H222.95C223.44 19.1406 223.747 19.2031 223.872 19.3281C223.997 19.4531 224.059 19.7604 224.059 20.25V20.9219ZM227.544 22.1875C226.471 22.1875 225.554 22.5677 224.794 23.3281C224.033 24.0885 223.653 25 223.653 26.0625C223.653 27.1354 224.033 28.0521 224.794 28.8125C225.554 29.5729 226.471 29.9531 227.544 29.9531C228.617 29.9531 229.528 29.5729 230.278 28.8125C231.039 28.0417 231.419 27.1094 231.419 26.0156C231.419 24.9635 231.039 24.0677 230.278 23.3281C229.518 22.5677 228.606 22.1875 227.544 22.1875ZM240.998 21.2344C241.956 19.5365 243.316 18.6875 245.076 18.6875C246.118 18.6875 246.639 18.9531 246.639 19.4844C246.639 19.5885 246.618 19.776 246.576 20.0469L246.357 21.4219C246.305 21.8073 246.232 22.0729 246.139 22.2188C246.045 22.3542 245.894 22.4219 245.686 22.4219C245.623 22.4219 245.529 22.4062 245.404 22.375C244.873 22.2396 244.451 22.1719 244.139 22.1719C243.232 22.1719 242.477 22.5104 241.873 23.1875C241.29 23.8229 240.998 24.875 240.998 26.3438V31.8906C240.998 32.3802 240.936 32.6875 240.811 32.8125C240.686 32.9375 240.378 33 239.889 33H238.217C237.738 33 237.436 32.9375 237.311 32.8125C237.186 32.6875 237.123 32.3802 237.123 31.8906V20.25C237.123 19.7604 237.186 19.4531 237.311 19.3281C237.436 19.2031 237.738 19.1406 238.217 19.1406H239.889C240.378 19.1406 240.686 19.2031 240.811 19.3281C240.936 19.4531 240.998 19.7604 240.998 20.25V21.2344ZM251.312 20.25V31.8906C251.312 32.3802 251.249 32.6875 251.124 32.8125C250.999 32.9375 250.697 33 250.218 33H248.531C248.051 33 247.749 32.9375 247.624 32.8125C247.499 32.6875 247.437 32.3802 247.437 31.8906V20.25C247.437 19.7604 247.499 19.4531 247.624 19.3281C247.749 19.2031 248.051 19.1406 248.531 19.1406H250.218C250.697 19.1406 250.999 19.2031 251.124 19.3281C251.249 19.4531 251.312 19.7604 251.312 20.25ZM249.374 10.9688C250.02 10.9688 250.567 11.1979 251.015 11.6562C251.473 12.1042 251.702 12.651 251.702 13.2969C251.702 13.9427 251.473 14.4948 251.015 14.9531C250.567 15.4115 250.02 15.6406 249.374 15.6406C248.729 15.6406 248.176 15.4115 247.718 14.9531C247.27 14.4948 247.046 13.9375 247.046 13.2812C247.046 12.6458 247.275 12.1042 247.734 11.6562C248.192 11.1979 248.739 10.9688 249.374 10.9688ZM262.423 21.0156L261.954 21.5938C261.725 21.8542 261.568 22.0156 261.485 22.0781C261.402 22.1302 261.292 22.1562 261.157 22.1562C261.053 22.1562 260.683 21.9896 260.048 21.6562C259.787 21.5208 259.438 21.4531 259.001 21.4531C258.563 21.4531 258.199 21.5677 257.907 21.7969C257.626 22.0156 257.485 22.2969 257.485 22.6406C257.485 22.9531 257.631 23.2135 257.923 23.4219C258.214 23.6198 258.803 23.875 259.688 24.1875C260.949 24.625 261.85 25.0312 262.391 25.4062C263.402 26.1354 263.907 27.1615 263.907 28.4844C263.907 30.0052 263.318 31.2344 262.141 32.1719C261.089 33.026 259.74 33.4531 258.094 33.4531C256.501 33.4531 255.068 32.974 253.798 32.0156C253.329 31.6615 253.094 31.349 253.094 31.0781C253.094 30.9219 253.24 30.6719 253.532 30.3281L254.126 29.6406C254.449 29.2552 254.714 29.0625 254.923 29.0625C255.068 29.0625 255.376 29.2552 255.844 29.6406C256.48 30.1615 257.245 30.4219 258.141 30.4219C258.631 30.4219 259.042 30.276 259.376 29.9844C259.719 29.6927 259.891 29.3281 259.891 28.8906C259.891 28.4948 259.756 28.1875 259.485 27.9688C259.214 27.7396 258.636 27.4635 257.751 27.1406C256.438 26.6615 255.553 26.2604 255.094 25.9375C254.188 25.2812 253.735 24.3229 253.735 23.0625C253.735 21.5521 254.324 20.3802 255.501 19.5469C256.365 18.9323 257.428 18.625 258.688 18.625C259.73 18.625 260.683 18.7969 261.548 19.1406C262.423 19.4844 262.86 19.8594 262.86 20.2656C262.86 20.4219 262.714 20.6719 262.423 21.0156ZM268.596 26.7031C268.637 27.8802 268.939 28.7865 269.502 29.4219C270.106 30.0885 270.939 30.4219 272.002 30.4219C273.314 30.4219 274.33 29.9115 275.049 28.8906C275.184 28.7031 275.356 28.6094 275.564 28.6094C275.596 28.6094 275.783 28.6354 276.127 28.6875L277.533 28.9219C277.919 28.9844 278.179 29.0625 278.314 29.1562C278.45 29.25 278.518 29.4062 278.518 29.625C278.518 29.8229 278.408 30.099 278.189 30.4531C277.971 30.8073 277.71 31.1302 277.408 31.4219C276.023 32.776 274.236 33.4531 272.049 33.4531C270.674 33.4531 269.408 33.1615 268.252 32.5781C266.866 31.8802 265.872 30.8281 265.268 29.4219C264.84 28.4323 264.627 27.3229 264.627 26.0938C264.627 24.6562 264.939 23.3333 265.564 22.125C266.169 20.9375 267.064 20.0573 268.252 19.4844C269.335 18.9531 270.544 18.6875 271.877 18.6875C273.919 18.6875 275.575 19.2656 276.846 20.4219C277.491 21.0156 278.007 21.7969 278.393 22.7656C278.778 23.7344 278.971 24.7292 278.971 25.75C278.971 26.1562 278.903 26.4167 278.768 26.5312C278.643 26.6458 278.34 26.7031 277.861 26.7031H268.596ZM275.283 24.2344C275.127 23.5365 274.882 22.9896 274.549 22.5938C273.913 21.8333 273.054 21.4531 271.971 21.4531C271.127 21.4531 270.419 21.6979 269.846 22.1875C269.283 22.6771 268.913 23.3594 268.736 24.2344H275.283Z" fill="#303031"/>
</g>
<defs>
<clipPath id="clip0_86_5">
<rect width="281" height="43" fill="white"/>
</clipPath>
<clipPath id="clip1_86_5">
<rect width="68" height="40" fill="white" transform="translate(0 1.5)"/>
</clipPath>
</defs>
</svg>
