<svg width="152" height="23" viewBox="0 0 152 23" fill="none" xmlns="http://www.w3.org/2000/svg">
<path d="M8.62109 0.640625C11.1367 0.640625 13.2305 1.53516 14.9023 3.32422C16.3945 4.91797 17.1406 6.8125 17.1406 9.00781C17.1406 10.5156 16.7617 11.9141 16.0039 13.2031C15.2305 14.5391 14.1641 15.5781 12.8047 16.3203C11.5234 17.0156 10.0898 17.3633 8.50391 17.3633C7.06641 17.3633 5.71875 17.0312 4.46094 16.3672C2.98438 15.5938 1.85156 14.4961 1.0625 13.0742C0.375 11.8398 0.03125 10.4453 0.03125 8.89062C0.03125 6.50781 0.953125 4.48438 2.79688 2.82031C3.71875 1.98438 4.77344 1.39062 5.96094 1.03906C6.85938 0.773438 7.74609 0.640625 8.62109 0.640625ZM8.59766 3.48828C7.11328 3.48828 5.85547 4.02734 4.82422 5.10547C3.77734 6.19141 3.25391 7.51172 3.25391 9.06641C3.25391 9.74609 3.39453 10.4297 3.67578 11.1172C3.95703 11.7969 4.33984 12.3906 4.82422 12.8984C5.85547 13.9766 7.10938 14.5156 8.58594 14.5156C10.0703 14.5156 11.332 13.9766 12.3711 12.8984C13.4102 11.8125 13.9297 10.5117 13.9297 8.99609C13.9297 8.26172 13.793 7.55469 13.5195 6.875C13.2461 6.1875 12.8633 5.59766 12.3711 5.10547C11.3008 4.02734 10.043 3.48828 8.59766 3.48828ZM21.5127 7.94141C22.4111 6.82422 23.5478 6.26562 24.9228 6.26562C26.4384 6.26562 27.7041 6.84375 28.7197 8C29.6025 9 30.0439 10.2734 30.0439 11.8203C30.0439 13.5625 29.4736 14.957 28.333 16.0039C27.3564 16.8945 26.2392 17.3398 24.9814 17.3398C24.2783 17.3398 23.6533 17.207 23.1064 16.9414C22.5595 16.6758 22.0283 16.2422 21.5127 15.6406V21.7227C21.5127 22.0898 21.4658 22.3203 21.372 22.4141C21.2783 22.5078 21.0478 22.5547 20.6806 22.5547H19.4267C19.0673 22.5547 18.8408 22.5078 18.747 22.4141C18.6533 22.3203 18.6064 22.0898 18.6064 21.7227V7.4375C18.6064 7.07031 18.6533 6.83984 18.747 6.74609C18.8408 6.65234 19.0673 6.60547 19.4267 6.60547H20.6806C21.0478 6.60547 21.2783 6.65234 21.372 6.74609C21.4658 6.83984 21.5127 7.07031 21.5127 7.4375V7.94141ZM24.1259 8.89062C23.3213 8.89062 22.6338 9.17578 22.0634 9.74609C21.4931 10.3164 21.208 11 21.208 11.7969C21.208 12.6016 21.4931 13.2891 22.0634 13.8594C22.6338 14.4297 23.3213 14.7148 24.1259 14.7148C24.9306 14.7148 25.6142 14.4297 26.1767 13.8594C26.747 13.2812 27.0322 12.582 27.0322 11.7617C27.0322 10.9727 26.747 10.3008 26.1767 9.74609C25.6064 9.17578 24.9228 8.89062 24.1259 8.89062ZM33.7245 12.2773C33.7558 13.1602 33.9823 13.8398 34.4042 14.3164C34.8573 14.8164 35.4823 15.0664 36.2792 15.0664C37.2636 15.0664 38.0253 14.6836 38.5644 13.918C38.6659 13.7773 38.7948 13.707 38.9511 13.707C38.9745 13.707 39.1152 13.7266 39.373 13.7656L40.4277 13.9414C40.7167 13.9883 40.912 14.0469 41.0136 14.1172C41.1152 14.1875 41.1659 14.3047 41.1659 14.4688C41.1659 14.6172 41.0839 14.8242 40.9198 15.0898C40.7558 15.3555 40.5605 15.5977 40.3339 15.8164C39.2948 16.832 37.955 17.3398 36.3144 17.3398C35.2831 17.3398 34.3339 17.1211 33.4667 16.6836C32.4277 16.1602 31.6816 15.3711 31.2284 14.3164C30.9081 13.5742 30.748 12.7422 30.748 11.8203C30.748 10.7422 30.9823 9.75 31.4511 8.84375C31.9042 7.95312 32.5761 7.29297 33.4667 6.86328C34.2792 6.46484 35.1855 6.26562 36.1855 6.26562C37.7167 6.26562 38.9589 6.69922 39.912 7.56641C40.3964 8.01172 40.7831 8.59766 41.0722 9.32422C41.3612 10.0508 41.5058 10.7969 41.5058 11.5625C41.5058 11.8672 41.455 12.0625 41.3534 12.1484C41.2597 12.2344 41.0331 12.2773 40.6737 12.2773H33.7245ZM38.7402 10.4258C38.623 9.90234 38.4394 9.49219 38.1894 9.19531C37.7128 8.625 37.0683 8.33984 36.2558 8.33984C35.623 8.33984 35.0917 8.52344 34.662 8.89062C34.2402 9.25781 33.9628 9.76953 33.83 10.4258H38.7402ZM45.702 7.89453C46.1005 7.38672 46.4872 7.02344 46.8622 6.80469C47.4716 6.44531 48.1747 6.26562 48.9716 6.26562C50.2528 6.26562 51.2606 6.68359 51.995 7.51953C52.2997 7.87109 52.5106 8.26172 52.6278 8.69141C52.7528 9.12109 52.8153 9.69141 52.8153 10.4023V16.168C52.8153 16.5352 52.7684 16.7656 52.6747 16.8594C52.5809 16.9531 52.3544 17 51.995 17H50.7294C50.3778 17 50.1512 16.9531 50.0497 16.8594C49.9559 16.7578 49.9091 16.5273 49.9091 16.168V11.2461C49.9091 10.4492 49.8153 9.88672 49.6278 9.55859C49.3153 9.01172 48.745 8.73828 47.9169 8.73828C47.1669 8.73828 46.6083 8.97656 46.2411 9.45312C45.8817 9.92188 45.702 10.6445 45.702 11.6211V16.168C45.702 16.5352 45.6552 16.7656 45.5614 16.8594C45.4677 16.9531 45.2372 17 44.87 17H43.6161C43.2567 17 43.0302 16.9531 42.9364 16.8594C42.8427 16.7656 42.7958 16.5352 42.7958 16.168V7.4375C42.7958 7.07031 42.8427 6.83984 42.9364 6.74609C43.0302 6.65234 43.2567 6.60547 43.6161 6.60547H44.87C45.2372 6.60547 45.4677 6.65234 45.5614 6.74609C45.6552 6.83984 45.702 7.07031 45.702 7.4375V7.89453ZM63.2352 3.71094V7.26172H67.9227C68.2898 7.26172 68.5203 7.30859 68.6141 7.40234C68.7078 7.49609 68.7547 7.72656 68.7547 8.09375V9.13672C68.7547 9.50391 68.7078 9.73438 68.6141 9.82812C68.5203 9.92188 68.2898 9.96875 67.9227 9.96875H63.2352V14.293H68.157C68.5164 14.293 68.743 14.3398 68.8367 14.4336C68.9305 14.5273 68.9773 14.7578 68.9773 15.125V16.168C68.9773 16.5352 68.9305 16.7656 68.8367 16.8594C68.743 16.9531 68.5164 17 68.157 17H60.95C60.5828 17 60.3523 16.9531 60.2586 16.8594C60.1648 16.7656 60.118 16.5352 60.118 16.168V1.83594C60.118 1.46875 60.1648 1.23828 60.2586 1.14453C60.3523 1.05078 60.5828 1.00391 60.95 1.00391H68.157C68.5086 1.00391 68.7352 1.05469 68.8367 1.15625C68.9305 1.25 68.9773 1.47656 68.9773 1.83594V2.87891C68.9773 3.24609 68.9305 3.47656 68.8367 3.57031C68.743 3.66406 68.5164 3.71094 68.157 3.71094H63.2352ZM73.5017 7.89453C73.9002 7.38672 74.2869 7.02344 74.6619 6.80469C75.2712 6.44531 75.9744 6.26562 76.7712 6.26562C78.0525 6.26562 79.0603 6.68359 79.7947 7.51953C80.0994 7.87109 80.3103 8.26172 80.4275 8.69141C80.5525 9.12109 80.615 9.69141 80.615 10.4023V16.168C80.615 16.5352 80.5681 16.7656 80.4744 16.8594C80.3806 16.9531 80.1541 17 79.7947 17H78.5291C78.1775 17 77.9509 16.9531 77.8494 16.8594C77.7556 16.7578 77.7087 16.5273 77.7087 16.168V11.2461C77.7087 10.4492 77.615 9.88672 77.4275 9.55859C77.115 9.01172 76.5447 8.73828 75.7166 8.73828C74.9666 8.73828 74.408 8.97656 74.0408 9.45312C73.6814 9.92188 73.5017 10.6445 73.5017 11.6211V16.168C73.5017 16.5352 73.4548 16.7656 73.3611 16.8594C73.2673 16.9531 73.0369 17 72.6697 17H71.4158C71.0564 17 70.8298 16.9531 70.7361 16.8594C70.6423 16.7656 70.5955 16.5352 70.5955 16.168V7.4375C70.5955 7.07031 70.6423 6.83984 70.7361 6.74609C70.8298 6.65234 71.0564 6.60547 71.4158 6.60547H72.6697C73.0369 6.60547 73.2673 6.65234 73.3611 6.74609C73.4548 6.83984 73.5017 7.07031 73.5017 7.4375V7.89453ZM85.3503 9.11328V16.168C85.3503 16.5352 85.3034 16.7656 85.2097 16.8594C85.1159 16.9531 84.8894 17 84.53 17H83.2644C82.9128 17 82.6862 16.9531 82.5847 16.8594C82.4909 16.7578 82.4441 16.5273 82.4441 16.168V9.11328H82.1159C81.7644 9.11328 81.5378 9.06641 81.4362 8.97266C81.3425 8.87109 81.2956 8.64453 81.2956 8.29297V7.4375C81.2956 7.07031 81.3425 6.83984 81.4362 6.74609C81.53 6.65234 81.7566 6.60547 82.1159 6.60547H82.4441V3.89844C82.4441 3.53125 82.4909 3.30078 82.5847 3.20703C82.6784 3.11328 82.905 3.06641 83.2644 3.06641H84.53C84.8816 3.06641 85.1081 3.11328 85.2097 3.20703C85.3034 3.30859 85.3503 3.53906 85.3503 3.89844V6.60547H86.5808C86.948 6.60547 87.1784 6.65234 87.2722 6.74609C87.3659 6.83984 87.4128 7.07031 87.4128 7.4375V8.29297C87.4128 8.65234 87.3659 8.87891 87.2722 8.97266C87.1784 9.06641 86.948 9.11328 86.5808 9.11328H85.3503ZM90.3083 12.2773C90.3395 13.1602 90.5661 13.8398 90.988 14.3164C91.4411 14.8164 92.0661 15.0664 92.863 15.0664C93.8473 15.0664 94.6091 14.6836 95.1481 13.918C95.2497 13.7773 95.3786 13.707 95.5348 13.707C95.5583 13.707 95.6989 13.7266 95.9567 13.7656L97.0114 13.9414C97.3005 13.9883 97.4958 14.0469 97.5973 14.1172C97.6989 14.1875 97.7497 14.3047 97.7497 14.4688C97.7497 14.6172 97.6677 14.8242 97.5036 15.0898C97.3395 15.3555 97.1442 15.5977 96.9177 15.8164C95.8786 16.832 94.5387 17.3398 92.8981 17.3398C91.8669 17.3398 90.9177 17.1211 90.0505 16.6836C89.0114 16.1602 88.2653 15.3711 87.8122 14.3164C87.4919 13.5742 87.3317 12.7422 87.3317 11.8203C87.3317 10.7422 87.5661 9.75 88.0348 8.84375C88.488 7.95312 89.1598 7.29297 90.0505 6.86328C90.863 6.46484 91.7692 6.26562 92.7692 6.26562C94.3005 6.26562 95.5427 6.69922 96.4958 7.56641C96.9802 8.01172 97.3669 8.59766 97.6559 9.32422C97.945 10.0508 98.0895 10.7969 98.0895 11.5625C98.0895 11.8672 98.0387 12.0625 97.9372 12.1484C97.8434 12.2344 97.6169 12.2773 97.2575 12.2773H90.3083ZM95.3239 10.4258C95.2067 9.90234 95.0231 9.49219 94.7731 9.19531C94.2966 8.625 93.652 8.33984 92.8395 8.33984C92.2067 8.33984 91.6755 8.52344 91.2458 8.89062C90.8239 9.25781 90.5466 9.76953 90.4137 10.4258H95.3239ZM102.286 8.17578C103.005 6.90234 104.024 6.26562 105.344 6.26562C106.126 6.26562 106.516 6.46484 106.516 6.86328C106.516 6.94141 106.501 7.08203 106.469 7.28516L106.305 8.31641C106.266 8.60547 106.212 8.80469 106.141 8.91406C106.071 9.01562 105.958 9.06641 105.801 9.06641C105.755 9.06641 105.684 9.05469 105.59 9.03125C105.192 8.92969 104.876 8.87891 104.641 8.87891C103.962 8.87891 103.395 9.13281 102.942 9.64062C102.505 10.1172 102.286 10.9062 102.286 12.0078V16.168C102.286 16.5352 102.239 16.7656 102.145 16.8594C102.051 16.9531 101.821 17 101.454 17H100.2C99.8405 17 99.6139 16.9531 99.5202 16.8594C99.4264 16.7656 99.3795 16.5352 99.3795 16.168V7.4375C99.3795 7.07031 99.4264 6.83984 99.5202 6.74609C99.6139 6.65234 99.8405 6.60547 100.2 6.60547H101.454C101.821 6.60547 102.051 6.65234 102.145 6.74609C102.239 6.83984 102.286 7.07031 102.286 7.4375V8.17578ZM110.045 7.94141C110.943 6.82422 112.08 6.26562 113.455 6.26562C114.97 6.26562 116.236 6.84375 117.252 8C118.134 9 118.576 10.2734 118.576 11.8203C118.576 13.5625 118.005 14.957 116.865 16.0039C115.888 16.8945 114.771 17.3398 113.513 17.3398C112.81 17.3398 112.185 17.207 111.638 16.9414C111.091 16.6758 110.56 16.2422 110.045 15.6406V21.7227C110.045 22.0898 109.998 22.3203 109.904 22.4141C109.81 22.5078 109.58 22.5547 109.213 22.5547H107.959C107.599 22.5547 107.373 22.5078 107.279 22.4141C107.185 22.3203 107.138 22.0898 107.138 21.7227V7.4375C107.138 7.07031 107.185 6.83984 107.279 6.74609C107.373 6.65234 107.599 6.60547 107.959 6.60547H109.213C109.58 6.60547 109.81 6.65234 109.904 6.74609C109.998 6.83984 110.045 7.07031 110.045 7.4375V7.94141ZM112.658 8.89062C111.853 8.89062 111.166 9.17578 110.595 9.74609C110.025 10.3164 109.74 11 109.74 11.7969C109.74 12.6016 110.025 13.2891 110.595 13.8594C111.166 14.4297 111.853 14.7148 112.658 14.7148C113.463 14.7148 114.146 14.4297 114.709 13.8594C115.279 13.2812 115.564 12.582 115.564 11.7617C115.564 10.9727 115.279 10.3008 114.709 9.74609C114.138 9.17578 113.455 8.89062 112.658 8.89062ZM122.749 8.17578C123.467 6.90234 124.487 6.26562 125.807 6.26562C126.588 6.26562 126.979 6.46484 126.979 6.86328C126.979 6.94141 126.963 7.08203 126.932 7.28516L126.768 8.31641C126.729 8.60547 126.674 8.80469 126.604 8.91406C126.534 9.01562 126.42 9.06641 126.264 9.06641C126.217 9.06641 126.147 9.05469 126.053 9.03125C125.655 8.92969 125.338 8.87891 125.104 8.87891C124.424 8.87891 123.858 9.13281 123.405 9.64062C122.967 10.1172 122.749 10.9062 122.749 12.0078V16.168C122.749 16.5352 122.702 16.7656 122.608 16.8594C122.514 16.9531 122.284 17 121.917 17H120.663C120.303 17 120.077 16.9531 119.983 16.8594C119.889 16.7656 119.842 16.5352 119.842 16.168V7.4375C119.842 7.07031 119.889 6.83984 119.983 6.74609C120.077 6.65234 120.303 6.60547 120.663 6.60547H121.917C122.284 6.60547 122.514 6.65234 122.608 6.74609C122.702 6.83984 122.749 7.07031 122.749 7.4375V8.17578ZM130.484 7.4375V16.168C130.484 16.5352 130.437 16.7656 130.343 16.8594C130.25 16.9531 130.023 17 129.664 17H128.398C128.039 17 127.812 16.9531 127.718 16.8594C127.625 16.7656 127.578 16.5352 127.578 16.168V7.4375C127.578 7.07031 127.625 6.83984 127.718 6.74609C127.812 6.65234 128.039 6.60547 128.398 6.60547H129.664C130.023 6.60547 130.25 6.65234 130.343 6.74609C130.437 6.83984 130.484 7.07031 130.484 7.4375ZM129.031 0.476562C129.515 0.476562 129.925 0.648438 130.261 0.992188C130.605 1.32812 130.777 1.73828 130.777 2.22266C130.777 2.70703 130.605 3.12109 130.261 3.46484C129.925 3.80859 129.515 3.98047 129.031 3.98047C128.546 3.98047 128.132 3.80859 127.789 3.46484C127.453 3.12109 127.285 2.70312 127.285 2.21094C127.285 1.73438 127.457 1.32812 127.8 0.992188C128.144 0.648438 128.554 0.476562 129.031 0.476562ZM138.817 8.01172L138.465 8.44531C138.293 8.64062 138.176 8.76172 138.114 8.80859C138.051 8.84766 137.969 8.86719 137.868 8.86719C137.79 8.86719 137.512 8.74219 137.036 8.49219C136.84 8.39062 136.579 8.33984 136.25 8.33984C135.922 8.33984 135.649 8.42578 135.43 8.59766C135.219 8.76172 135.114 8.97266 135.114 9.23047C135.114 9.46484 135.223 9.66016 135.442 9.81641C135.661 9.96484 136.102 10.1562 136.766 10.3906C137.711 10.7188 138.387 11.0234 138.793 11.3047C139.551 11.8516 139.93 12.6211 139.93 13.6133C139.93 14.7539 139.489 15.6758 138.606 16.3789C137.817 17.0195 136.805 17.3398 135.571 17.3398C134.375 17.3398 133.301 16.9805 132.348 16.2617C131.997 15.9961 131.821 15.7617 131.821 15.5586C131.821 15.4414 131.93 15.2539 132.149 14.9961L132.594 14.4805C132.836 14.1914 133.036 14.0469 133.192 14.0469C133.301 14.0469 133.532 14.1914 133.883 14.4805C134.36 14.8711 134.934 15.0664 135.606 15.0664C135.973 15.0664 136.282 14.957 136.532 14.7383C136.79 14.5195 136.918 14.2461 136.918 13.918C136.918 13.6211 136.817 13.3906 136.614 13.2266C136.411 13.0547 135.977 12.8477 135.313 12.6055C134.329 12.2461 133.665 11.9453 133.321 11.7031C132.641 11.2109 132.301 10.4922 132.301 9.54688C132.301 8.41406 132.743 7.53516 133.625 6.91016C134.274 6.44922 135.071 6.21875 136.016 6.21875C136.797 6.21875 137.512 6.34766 138.161 6.60547C138.817 6.86328 139.145 7.14453 139.145 7.44922C139.145 7.56641 139.036 7.75391 138.817 8.01172ZM143.447 12.2773C143.478 13.1602 143.705 13.8398 144.126 14.3164C144.58 14.8164 145.205 15.0664 146.001 15.0664C146.986 15.0664 147.747 14.6836 148.287 13.918C148.388 13.7773 148.517 13.707 148.673 13.707C148.697 13.707 148.837 13.7266 149.095 13.7656L150.15 13.9414C150.439 13.9883 150.634 14.0469 150.736 14.1172C150.837 14.1875 150.888 14.3047 150.888 14.4688C150.888 14.6172 150.806 14.8242 150.642 15.0898C150.478 15.3555 150.283 15.5977 150.056 15.8164C149.017 16.832 147.677 17.3398 146.037 17.3398C145.005 17.3398 144.056 17.1211 143.189 16.6836C142.15 16.1602 141.404 15.3711 140.951 14.3164C140.63 13.5742 140.47 12.7422 140.47 11.8203C140.47 10.7422 140.705 9.75 141.173 8.84375C141.626 7.95312 142.298 7.29297 143.189 6.86328C144.001 6.46484 144.908 6.26562 145.908 6.26562C147.439 6.26562 148.681 6.69922 149.634 7.56641C150.119 8.01172 150.505 8.59766 150.794 9.32422C151.083 10.0508 151.228 10.7969 151.228 11.5625C151.228 11.8672 151.177 12.0625 151.076 12.1484C150.982 12.2344 150.755 12.2773 150.396 12.2773H143.447ZM148.462 10.4258C148.345 9.90234 148.162 9.49219 147.912 9.19531C147.435 8.625 146.79 8.33984 145.978 8.33984C145.345 8.33984 144.814 8.52344 144.384 8.89062C143.962 9.25781 143.685 9.76953 143.552 10.4258H148.462Z" fill="#303031"/>
</svg>
